<svg width="381" height="49" viewBox="0 0 381 49" fill="none" xmlns="http://www.w3.org/2000/svg">
<line x1="45" y1="24.0001" x2="345" y2="24.0001" stroke="#FCF4FF" stroke-width="2"/>
<path d="M29.4299 18.9281C31.9003 16.4577 33.6983 13.8535 35.006 11.4063C36.3136 13.8535 38.1116 16.4577 40.582 18.9281C42.9463 21.2924 46.0739 22.955 49.1863 24.152C49.5016 24.2733 49.819 24.3906 50.1381 24.5042C49.819 24.6177 49.5016 24.7351 49.1863 24.8563C46.0739 26.0533 42.9463 27.716 40.582 30.0803C38.1116 32.5507 36.3136 35.1549 35.006 37.602C33.6983 35.1549 31.9003 32.5507 29.4299 30.0803C27.0656 27.716 23.938 26.0533 20.8256 24.8563C20.5103 24.7351 20.1929 24.6177 19.8739 24.5042C20.1929 24.3906 20.5103 24.2733 20.8256 24.152C23.938 22.955 27.0656 21.2924 29.4299 18.9281Z" fill="#FCF4FF" stroke="#FCF4FF" stroke-width="7.00119"/>
<path d="M339.43 18.9281C341.9 16.4577 343.698 13.8535 345.006 11.4063C346.314 13.8535 348.112 16.4577 350.582 18.9281C352.946 21.2924 356.074 22.955 359.186 24.152C359.502 24.2733 359.819 24.3906 360.138 24.5042C359.819 24.6177 359.502 24.7351 359.186 24.8563C356.074 26.0533 352.946 27.716 350.582 30.0803C348.112 32.5507 346.314 35.1549 345.006 37.602C343.698 35.1549 341.9 32.5507 339.43 30.0803C337.066 27.716 333.938 26.0533 330.826 24.8563C330.51 24.7351 330.193 24.6177 329.874 24.5042C330.193 24.3906 330.51 24.2733 330.826 24.152C333.938 22.955 337.066 21.2924 339.43 18.9281Z" fill="#FCF4FF" stroke="#FCF4FF" stroke-width="7.00119"/>
</svg>
