<svg width="90" height="50" viewBox="0 0 90 50" fill="none" xmlns="http://www.w3.org/2000/svg">
<path fill-rule="evenodd" clip-rule="evenodd" d="M46 48C51.6059 48 56.7434 45.9944 60.734 42.6617C59.0031 43.2063 57.1608 43.5 55.25 43.5C45.1708 43.5 37 35.3292 37 25.25C37 15.1708 45.1708 7 55.25 7C57.5076 7 59.6695 7.40993 61.6652 8.15942C57.5586 4.3377 52.0523 2 46 2C33.2975 2 23 12.2975 23 25C23 37.7025 33.2975 48 46 48ZM57.5686 9.16415C58.0401 9.12169 58.5176 9.10001 59 9.10001C61.896 9.10001 64.6124 9.88145 66.9557 11.2481C66.9008 11.2021 66.8456 11.1564 66.7901 11.1111C62.3054 4.4112 54.6678 0 46 0C32.1929 0 21 11.1929 21 25C21 38.8071 32.1929 50 46 50C54.181 50 61.4441 46.0704 66.005 39.9958C66.0501 39.9629 66.095 39.9297 66.1398 39.8963C63.9905 40.9866 61.5658 41.6 59 41.6C58.2232 41.6 57.4593 41.5438 56.7121 41.4351C56.2304 41.4781 55.7428 41.5 55.25 41.5C46.2754 41.5 39 34.2246 39 25.25C39 16.2754 46.2754 9 55.25 9C56.0372 9 56.8113 9.05597 57.5686 9.16415Z" fill="#FCF4FF"/>
<path d="M68.5929 18.4071C69.2986 19.1128 70.0425 19.6265 70.7416 20C70.0425 20.3735 69.2986 20.8872 68.5929 21.5929C67.9175 22.2683 67.4425 23.1617 67.1006 24.0508C67.066 24.1409 67.0324 24.2316 67 24.3227C66.9676 24.2316 66.934 24.1409 66.8994 24.0508C66.5575 23.1617 66.0825 22.2683 65.4071 21.5929C64.7014 20.8872 63.9575 20.3735 63.2584 20C63.9575 19.6265 64.7014 19.1128 65.4071 18.4071C66.0825 17.7317 66.5575 16.8383 66.8994 15.9492C66.934 15.8591 66.9676 15.7684 67 15.6773C67.0324 15.7684 67.066 15.8591 67.1006 15.9492C67.4425 16.8383 67.9175 17.7317 68.5929 18.4071Z" stroke="#FCF4FF" stroke-width="2"/>
<circle cx="87.5" cy="25.5" r="2.5" fill="#FCF4FF"/>
<circle cx="2.5" cy="25.5" r="2.5" fill="#FCF4FF"/>
</svg>
