<svg width="72" height="40" viewBox="0 0 72 40" fill="none" xmlns="http://www.w3.org/2000/svg">
<path fill-rule="evenodd" clip-rule="evenodd" d="M36.8 38.4C41.2848 38.4 45.3947 36.7955 48.5873 34.1293C47.2025 34.5651 45.7287 34.8 44.2001 34.8C36.1367 34.8 29.6 28.2634 29.6 20.2C29.6 12.1366 36.1367 5.6 44.2001 5.6C46.0061 5.6 47.7356 5.92795 49.3322 6.52753C46.0469 3.47016 41.6419 1.6 36.8 1.6C26.638 1.6 18.4 9.83796 18.4 20C18.4 30.162 26.638 38.4 36.8 38.4ZM46.0549 7.33132C46.4321 7.29735 46.8141 7.28 47.2001 7.28C49.5169 7.28 51.69 7.90517 53.5646 8.99845C53.5207 8.96168 53.4765 8.92516 53.4322 8.8889C49.8443 3.52896 43.7343 0 36.8 0C25.7544 0 16.8 8.9543 16.8 20C16.8 31.0457 25.7544 40 36.8 40C43.3448 40 49.1554 36.8563 52.804 31.9967C52.8401 31.9703 52.8761 31.9438 52.9119 31.9171C51.1925 32.7893 49.2527 33.28 47.2001 33.28C46.5786 33.28 45.9675 33.235 45.3697 33.1481C44.9844 33.1825 44.5943 33.2 44.2001 33.2C37.0203 33.2 31.2001 27.3797 31.2001 20.2C31.2001 13.0203 37.0203 7.2 44.2001 7.2C44.8298 7.2 45.4491 7.24478 46.0549 7.33132Z" fill="#FCF4FF"/>
<path d="M54.7329 14.8671C55.2091 15.3433 55.7063 15.713 56.187 16C55.7063 16.287 55.2091 16.6567 54.7329 17.1329C54.2336 17.6321 53.87 18.267 53.6 18.9055C53.33 18.267 52.9664 17.6321 52.4671 17.1329C51.9909 16.6567 51.4937 16.287 51.013 16C51.4937 15.713 51.9909 15.3433 52.4671 14.8671C52.9664 14.3679 53.33 13.733 53.6 13.0945C53.87 13.733 54.2336 14.3679 54.7329 14.8671Z" stroke="#FCF4FF" stroke-width="2"/>
<circle cx="70" cy="20.4" r="2" fill="#FCF4FF"/>
<circle cx="2" cy="20.4" r="2" fill="#FCF4FF"/>
</svg>
