<svg width="311" height="49" viewBox="0 0 311 49" fill="none" xmlns="http://www.w3.org/2000/svg">
<line x1="55" y1="23.9916" x2="255" y2="23.9916" stroke="#232024" stroke-width="2"/>
<path d="M29.4299 18.9198C31.9003 16.4493 33.6983 13.8452 35.006 11.398C36.3136 13.8452 38.1116 16.4493 40.582 18.9198C42.9463 21.284 46.0739 22.9467 49.1863 24.1437C49.5016 24.2649 49.819 24.3823 50.1381 24.4958C49.819 24.6094 49.5016 24.7267 49.1863 24.848C46.0739 26.045 42.9463 27.7077 40.582 30.0719C38.1116 32.5423 36.3136 35.1465 35.006 37.5937C33.6983 35.1465 31.9003 32.5423 29.4299 30.0719C27.0656 27.7077 23.938 26.045 20.8256 24.848C20.5103 24.7267 20.1929 24.6094 19.8739 24.4958C20.1929 24.3823 20.5103 24.2649 20.8256 24.1437C23.938 22.9467 27.0656 21.284 29.4299 18.9198Z" fill="#232024" stroke="#232024" stroke-width="7.00119"/>
<path d="M269.43 18.9198C271.9 16.4493 273.698 13.8452 275.006 11.398C276.314 13.8452 278.112 16.4493 280.582 18.9198C282.946 21.284 286.074 22.9467 289.186 24.1437C289.502 24.2649 289.819 24.3823 290.138 24.4958C289.819 24.6094 289.502 24.7267 289.186 24.848C286.074 26.045 282.946 27.7077 280.582 30.0719C278.112 32.5423 276.314 35.1465 275.006 37.5937C273.698 35.1465 271.9 32.5423 269.43 30.0719C267.066 27.7077 263.938 26.045 260.826 24.848C260.51 24.7267 260.193 24.6094 259.874 24.4958C260.193 24.3823 260.51 24.2649 260.826 24.1437C263.938 22.9467 267.066 21.284 269.43 18.9198Z" fill="#232024" stroke="#232024" stroke-width="7.00119"/>
</svg>
