<svg width="50" height="565" viewBox="0 0 50 565" fill="none" xmlns="http://www.w3.org/2000/svg">
<line x1="25" y1="56.9917" x2="25" y2="540.008" stroke="#232024" stroke-width="2"/>
<path d="M30.5802 29.4299C33.0507 31.9003 35.6548 33.6983 38.102 35.006C35.6548 36.3136 33.0507 38.1116 30.5802 40.582C28.216 42.9463 26.5533 46.0739 25.3563 49.1863C25.2351 49.5016 25.1177 49.819 25.0042 50.1381C24.8906 49.819 24.7733 49.5016 24.652 49.1863C23.455 46.0739 21.7923 42.9463 19.4281 40.582C16.9577 38.1116 14.3535 36.3136 11.9063 35.006C14.3535 33.6983 16.9577 31.9003 19.4281 29.4299C21.7923 27.0656 23.455 23.938 24.652 20.8256C24.7733 20.5103 24.8906 20.1929 25.0042 19.8739C25.1177 20.1929 25.2351 20.5103 25.3563 20.8256C26.5533 23.938 28.216 27.0656 30.5802 29.4299Z" fill="#232024" stroke="#232024" stroke-width="7.00119"/>
<path d="M30.5802 523.43C33.0507 525.9 35.6548 527.698 38.102 529.006C35.6548 530.314 33.0507 532.112 30.5802 534.582C28.216 536.946 26.5533 540.074 25.3563 543.186C25.2351 543.502 25.1177 543.819 25.0042 544.138C24.8906 543.819 24.7733 543.502 24.652 543.186C23.455 540.074 21.7923 536.946 19.4281 534.582C16.9577 532.112 14.3535 530.314 11.9063 529.006C14.3535 527.698 16.9577 525.9 19.4281 523.43C21.7923 521.066 23.455 517.938 24.652 514.826C24.7733 514.51 24.8906 514.193 25.0042 513.874C25.1177 514.193 25.2351 514.51 25.3563 514.826C26.5533 517.938 28.216 521.066 30.5802 523.43Z" fill="#232024" stroke="#232024" stroke-width="7.00119"/>
</svg>
