<svg width="50" height="786" viewBox="0 0 50 786" fill="none" xmlns="http://www.w3.org/2000/svg">
<line x1="25.4978" y1="49.9996" x2="25.4978" y2="750" stroke="#FCF4FF" stroke-width="2"/>
<path d="M30.5802 29.4299C33.0507 31.9003 35.6548 33.6983 38.102 35.006C35.6548 36.3136 33.0507 38.1116 30.5802 40.582C28.216 42.9463 26.5533 46.0739 25.3563 49.1863C25.2351 49.5016 25.1177 49.819 25.0042 50.1381C24.8906 49.819 24.7733 49.5016 24.652 49.1863C23.455 46.0739 21.7923 42.9463 19.4281 40.582C16.9577 38.1116 14.3535 36.3136 11.9063 35.006C14.3535 33.6983 16.9577 31.9003 19.4281 29.4299C21.7923 27.0656 23.455 23.938 24.652 20.8256C24.7733 20.5103 24.8906 20.1929 25.0042 19.8739C25.1177 20.1929 25.2351 20.5103 25.3563 20.8256C26.5533 23.938 28.216 27.0656 30.5802 29.4299Z" fill="#FCF4FF" stroke="#FCF4FF" stroke-width="7.00119"/>
<path d="M30.5802 744.43C33.0507 746.9 35.6548 748.698 38.102 750.006C35.6548 751.314 33.0507 753.112 30.5802 755.582C28.216 757.946 26.5533 761.074 25.3563 764.186C25.2351 764.502 25.1177 764.819 25.0042 765.138C24.8906 764.819 24.7733 764.502 24.652 764.186C23.455 761.074 21.7923 757.946 19.4281 755.582C16.9577 753.112 14.3535 751.314 11.9063 750.006C14.3535 748.698 16.9577 746.9 19.4281 744.43C21.7923 742.066 23.455 738.938 24.652 735.826C24.7733 735.51 24.8906 735.193 25.0042 734.874C25.1177 735.193 25.2351 735.51 25.3563 735.826C26.5533 738.938 28.216 742.066 30.5802 744.43Z" fill="#FCF4FF" stroke="#FCF4FF" stroke-width="7.00119"/>
</svg>
