<svg width="32" height="32" viewBox="0 0 32 32" fill="none" xmlns="http://www.w3.org/2000/svg">
<path fill-rule="evenodd" clip-rule="evenodd" d="M16 30.72C19.5878 30.72 22.8757 29.4364 25.4298 27.3035C24.322 27.6521 23.1429 27.84 21.92 27.84C15.4693 27.84 10.24 22.6107 10.24 16.16C10.24 9.70931 15.4693 4.48 21.92 4.48C23.3649 4.48 24.7485 4.74236 26.0257 5.22203C23.3975 2.77613 19.8735 1.28 16 1.28C7.87037 1.28 1.28 7.87037 1.28 16C1.28 24.1296 7.87037 30.72 16 30.72ZM23.4039 5.86506C23.7057 5.83788 24.0112 5.824 24.32 5.824C26.1735 5.824 27.9119 6.32412 29.4116 7.19874C29.3765 7.16933 29.3412 7.14013 29.3057 7.11113C26.4354 2.82317 21.5474 0 16 0C7.16344 0 0 7.16344 0 16C0 24.8366 7.16344 32 16 32C21.2358 32 25.8842 29.4851 28.8032 25.5973C28.8321 25.5762 28.8608 25.555 28.8895 25.5337C27.514 26.2314 25.9621 26.624 24.32 26.624C23.8228 26.624 23.334 26.588 22.8557 26.5185C22.5475 26.546 22.2354 26.56 21.92 26.56C16.1762 26.56 11.52 21.9038 11.52 16.16C11.52 10.4162 16.1762 5.76 21.92 5.76C22.4238 5.76 22.9192 5.79582 23.4039 5.86506Z" fill="#FCF4FF"/>
<path d="M28.5395 11.7806C28.9911 12.2322 29.4672 12.561 29.9146 12.8C29.4672 13.0391 28.9911 13.3678 28.5395 13.8195C28.1072 14.2517 27.8032 14.8235 27.5844 15.3926C27.5622 15.4502 27.5408 15.5082 27.52 15.5666C27.4992 15.5082 27.4778 15.4502 27.4556 15.3926C27.2368 14.8235 26.9328 14.2517 26.5006 13.8195C26.0489 13.3678 25.5728 13.0391 25.1254 12.8C25.5728 12.561 26.0489 12.2322 26.5006 11.7806C26.9328 11.3483 27.2368 10.7765 27.4556 10.2075C27.4778 10.1498 27.4992 10.0918 27.52 10.0335C27.5408 10.0918 27.5622 10.1498 27.5844 10.2075C27.8032 10.7765 28.1072 11.3483 28.5395 11.7806Z" stroke="#FCF4FF" stroke-width="1.28"/>
</svg>
